<svg width="26" height="26" viewBox="0 0 26 26" fill="none" xmlns="http://www.w3.org/2000/svg">
<path d="M13 1.89416e-07C15.3932 2.94028e-07 17.3333 1.9401 17.3333 4.33333V8.66667H8.66667V0L13 1.89416e-07Z" fill="#0075F2"/>
<path d="M17.3333 8.66667V17.3333H8.66667V8.66667H17.3333Z" fill="#0075F2"/>
<path d="M0 13C0 10.6068 1.9401 8.66667 4.33333 8.66667L8.66667 8.66667V17.3333L0 17.3333V13Z" fill="#80DED9"/>
<path d="M17.3333 21.6667C17.3333 24.0599 15.3932 26 13 26H8.66667V17.3333H17.3333V21.6667Z" fill="#55A9A6"/>
<path d="M21.6667 8.66668C24.0599 8.66668 26 10.6068 26 13V17.3333L17.3333 17.3333V8.66667L21.6667 8.66668Z" fill="#0075F2"/>
</svg>
